# xmcd CD database file
#
# Track frame offsets:
#	180
#	12097
#	28577
#	41844
#	55031
#	72575
#	84351
#	96872
#	109925
#	126128
#	139100
#	158831
#	177369
#	195518
#	216368
#	229946
#	243229
#	257249
#
# Disc length: 3634 seconds
#
# Revision: 0
# Processed by: cddbd v1.5.2PL0 Copyright (c) Steve Scherf et al.
# Submitted via: CDex 1.51
#
DISCID=fb0e3012
DTITLE=Grammy Various Artist - ธ สถิตในดวงใจนิรันดร์ 4
DYEAR=1900
DGENRE=Jazz
TTITLE0=ลมหนาว
TTITLE1=ชะตาชีวิต
TTITLE2=แสงเดือน
TTITLE3=ดวงใจกับความรัก
TTITLE4=เพลงเตือนใจ
TTITLE5=ยามเย็น
TTITLE6=ยิ้มสู้
TTITLE7=สายลม
TTITLE8=ความฝันอันสูงสุด
TTITLE9=ไร้จันทร์
TTITLE10=อาทิตย์อับแสง
TTITLE11=รัก
TTITLE12=ฝัน
TTITLE13=ยามค่ำ
TTITLE14=เราสู้
TTITLE15=Oh I Say
TTITLE16=แว่ว
TTITLE17=พรปีใหม่
EXTD=
EXTT0=
EXTT1=
EXTT2=
EXTT3=
EXTT4=
EXTT5=
EXTT6=
EXTT7=
EXTT8=
EXTT9=
EXTT10=
EXTT11=
EXTT12=
EXTT13=
EXTT14=
EXTT15=
EXTT16=
EXTT17=
PLAYORDER=
